<?xml version="1.0" encoding="UTF-8"?><svg xmlns="http://www.w3.org/2000/svg" viewBox="0 0 725 318.41"><defs><style>.d{fill:none;}.e{fill:#fff;}.f{fill:#f5c32c;}</style></defs><g id="a"/><g id="b"/><g id="c"><g><rect class="d" x="447.68" y="199.56" width="25.12" height="25.38"/><rect class="d" x="335.45" y="199.56" width="25.62" height="25.38"/><polygon class="f" points="306.5 134.94 306.16 134.62 231.1 63.14 231.1 74.16 307.44 146.85 312.5 146.85 312.5 134.94 306.5 134.94"/><rect class="f" x="217.19" y="134.94" width="11.55" height="11.91"/><path d="M231.1,134.94v-57.54l75.07,71.48,.34,.32h8.35V6.96h-16.42V78.11L223.02,6.96h-8.17V149.2h16.25v-14.26Zm-13.9,11.91v-11.91h11.55v11.91h-11.55Zm4.89-137.54l78.69,74.25V9.31h11.72v123.28h-5.06L228.75,57.66v74.93h-11.55V9.31h4.89Zm85.36,137.54l-76.35-72.7v-11.01l75.07,71.48,.34,.32h6v11.91h-5.06Z"/><rect class="f" x="342.82" y="134.94" width="25.46" height="11.91"/><rect class="f" x="370.63" y="79.35" width="25.62" height="11.72"/><rect class="f" x="370.63" y="23.57" width="39.53" height="11.55"/><rect class="f" x="454.38" y="134.94" width="25.46" height="11.91"/><rect class="f" x="482.18" y="23.57" width="25.62" height="11.55"/><rect class="f" x="426.4" y="23.57" width="25.62" height="11.55"/><polygon class="e" points="217.19 23.57 217.19 132.59 228.75 132.59 228.75 71.92 228.75 57.66 307.44 132.59 312.5 132.59 312.5 23.57 312.5 9.31 300.78 9.31 300.78 23.57 300.78 83.56 222.08 9.31 217.19 9.31 217.19 23.57"/><polygon class="e" points="342.82 23.57 342.82 132.59 368.28 132.59 368.28 91.07 368.28 79.35 368.28 76.81 396.25 76.81 396.25 65.09 368.28 65.09 368.28 35.12 368.28 20.87 410.15 20.87 410.15 9.31 342.82 9.31 342.82 23.57"/><path d="M340.47,21.22v127.98h30.16v-55.78h27.97v-30.68h-27.97v-25.27h41.88V6.96h-72.03v14.26Zm69.68-11.91v11.55h-41.88v44.23h27.97v11.72h-27.97v55.78h-25.46V9.31h67.33Zm0,25.81h-39.53v-11.55h39.53v11.55Zm-13.9,55.95h-25.62v-11.72h25.62v11.72Zm-53.43,55.78v-11.91h25.46v11.91h-25.46Z"/><polygon class="e" points="454.38 35.12 454.38 132.59 479.83 132.59 479.83 35.12 479.83 20.87 507.81 20.87 507.81 9.31 426.4 9.31 426.4 20.87 454.38 20.87 454.38 35.12"/><path d="M424.06,21.22v16.25h27.97v111.73h30.15V37.47h27.97V6.96h-86.1v14.26Zm2.35-.35V9.31h81.4v11.55h-27.97v111.73h-25.46V20.87h-27.97Zm81.4,14.26h-25.62v-11.55h25.62v11.55Zm-53.43,111.73v-11.91h25.46v11.91h-25.46Zm-27.97-123.28h25.62v11.55h-25.62v-11.55Z"/><path class="f" d="M25.33,241.12c3.03,3.2,6.39,6.41,9.97,9.56,3.59,3.15,6.98,6.23,10.08,9.16,3.1,2.93,5.73,5.76,7.82,8.42,.37,.47,.69,.92,1,1.37v-7.84c0-1.73-.96-3.82-2.85-6.23-2.02-2.57-4.58-5.31-7.59-8.16-3.06-2.89-6.43-5.95-10.02-9.1-3.65-3.2-7.05-6.46-10.13-9.71-3.11-3.27-5.74-6.57-7.84-9.8-.34-.53-.65-1.05-.94-1.58v5.79c0,2.77,.98,5.69,2.91,8.66,2.02,3.11,4.57,6.3,7.57,9.46Z"/><path class="f" d="M68.28,199.64v-1.17c0-4.14-1.32-7.27-4.02-9.57-1.51-1.28-3.4-2.2-5.64-2.78-1.33-.2-2.69-.3-4.07-.3h-11.89v11.39h9.88c5.62,0,10.07,1.36,13.24,4.05,2.95,2.51,4.57,5.93,4.82,10.19h11.39c-.14-3.19-.86-6.27-2.13-9.15-.41-.92-.87-1.79-1.36-2.65h-10.21Z"/><path class="f" d="M79.84,292.32c1.33-3.25,2.01-6.73,2.01-10.36v-2.54c-1.44,3.38-3.42,6.43-5.93,9.05-2.61,2.73-5.78,4.9-9.43,6.46-2.38,1.02-5.88,2.16-9.84,2.35h-.27c-.29,.02-.57,.04-.86,.04-.38,0-.76-.01-1.15-.03h-11.63c-1.57,.09-3.05-.03-4.45-.31-2.58-.36-5.05-1.04-7.4-2.05-3.64-1.56-6.86-3.7-9.57-6.35-2.5-2.45-4.52-5.32-6.04-8.51,.37,5.13,.96,10.61,1.74,12.38,1.44,3.26,3.44,6.15,5.94,8.6,2.5,2.45,5.48,4.43,8.85,5.88,3.36,1.44,7,2.17,10.84,2.17h11.73c4.06,0,7.82-.73,11.18-2.17,3.36-1.44,6.27-3.44,8.66-5.93,2.4-2.5,4.29-5.42,5.62-8.68Z"/><rect class="f" x="153.88" y="185.82" width="25.62" height="11.55"/><rect class="f" x="126.07" y="297.3" width="25.46" height="11.8"/><rect class="f" x="98.1" y="185.82" width="25.62" height="11.55"/><path class="f" d="M268.87,300.98c2.51-2.51,4.54-5.44,6.05-8.71,1.48-3.24,2.24-6.7,2.24-10.31v-3.09c-.04,.08-.07,.16-.1,.24-1.62,3.52-3.81,6.68-6.52,9.39-2.72,2.71-5.88,4.88-9.4,6.44-3.54,1.57-7.34,2.36-11.28,2.36h-26.63c-3.94,0-7.74-.8-11.28-2.36-3.52-1.56-6.69-3.73-9.4-6.44-2.71-2.71-4.91-5.87-6.52-9.39-.04-.08-.07-.16-.1-.24v3.09c0,3.61,.75,7.08,2.24,10.31,1.5,3.27,3.53,6.19,6.05,8.7,2.51,2.51,5.43,4.51,8.69,5.96,3.24,1.43,6.72,2.16,10.33,2.16h26.63c3.61,0,7.09-.73,10.33-2.16,3.26-1.44,6.18-3.45,8.69-5.95Z"/><rect class="f" x="335.45" y="241.52" width="25.62" height="11.8"/><rect class="f" x="363.42" y="297.3" width="25.46" height="11.8"/><rect class="f" x="307.65" y="297.3" width="25.46" height="11.8"/><rect class="f" x="335.45" y="185.82" width="25.62" height="11.39"/><path class="f" d="M388.88,224.68v-2.23c-.05,.09-.08,.19-.13,.28-1.63,3.08-3.44,5.5-5.37,7.2-1.43,1.26-3.24,2.38-5.39,3.35,2.18,1.21,4,2.55,5.44,3.99,.47,.47,.94,.99,1.4,1.54,.63-.92,1.25-1.91,1.84-3.03,1.47-2.77,2.21-6.51,2.21-11.09Z"/><rect class="f" x="447.68" y="241.52" width="25.12" height="11.8"/><rect class="f" x="447.68" y="185.82" width="25.12" height="11.39"/><rect class="f" x="419.87" y="297.3" width="25.46" height="11.8"/><rect class="f" x="475.15" y="297.3" width="25.62" height="11.8"/><path class="f" d="M596.1,306.86c3.31-1.5,6.21-3.5,8.61-5.95,2.39-2.44,4.28-5.36,5.61-8.66,1.33-3.31,2.01-6.82,2.01-10.45v-2.45c-1.44,3.44-3.43,6.49-5.94,9.06-2.6,2.66-5.74,4.83-9.32,6.45-3.09,1.4-6.51,2.2-10.2,2.4v.13h-30.32v-.12c-3.54-.19-6.88-.96-9.94-2.32-3.53-1.56-6.66-3.7-9.32-6.36-2.62-2.62-4.7-5.74-6.2-9.25v2.47c0,3.74,.7,7.3,2.09,10.6,1.38,3.31,3.33,6.22,5.78,8.67,2.45,2.45,5.34,4.43,8.61,5.87,3.24,1.43,6.83,2.16,10.66,2.16h26.8c4.06,0,7.78-.75,11.07-2.24Z"/><rect class="f" x="572.8" y="241.35" width="11.72" height="11.8"/><path class="f" d="M598.59,199.98v-1.17c0-4.28-.93-7.61-2.76-9.9-.2-.25-.4-.47-.62-.69-.05-.02-.09-.05-.14-.07-3.29-1.54-6.73-2.32-10.22-2.32h-25.96v11.55h29.65c3.82,0,6.89,1.42,9.13,4.21,1.99,2.49,3.08,5.92,3.25,10.2h11.38c-.15-2.98-.89-5.94-2.21-8.8-.48-1.04-1.03-2.03-1.62-2.99h-9.88Z"/><rect class="f" x="670.62" y="241.52" width="25.62" height="11.8"/><polygon class="f" points="642.82 297.3 642.82 309.1 710.15 309.1 710.15 297.38 668.27 297.38 668.27 297.3 642.82 297.3"/><rect class="f" x="670.62" y="185.82" width="39.53" height="11.55"/><path class="e" d="M81.99,197.29c-.14-3.19-.86-6.27-2.13-9.15-1.44-3.25-3.43-6.11-5.94-8.51-2.51-2.4-5.47-4.36-8.79-5.8-3.3-1.44-6.86-2.16-10.58-2.16h-11.89c-3.84,0-7.5,.7-10.86,2.09-3.37,1.39-6.34,3.34-8.84,5.78-2.51,2.45-4.51,5.35-5.94,8.6-1.43,3.24-2.16,6.83-2.16,10.66v10.05c0,2.77,.98,5.68,2.91,8.66,2.02,3.11,4.57,6.29,7.57,9.46,3.02,3.19,6.38,6.41,9.97,9.56,3.61,3.16,7,6.25,10.08,9.16,3.1,2.93,5.73,5.76,7.82,8.42,2.25,2.87,3.35,5.38,3.35,7.68v21.61h-13.91c-4.77,0-8.68-1.47-11.63-4.36-2.7-2.64-4.18-6.02-4.42-10.05H14.87c.14,3.3,.85,6.42,2.14,9.32,1.44,3.26,3.44,6.15,5.95,8.6,2.5,2.45,5.48,4.43,8.85,5.87,3.35,1.44,7,2.17,10.84,2.17h11.73c3.54,.2,7.49-.58,11.18-2.17,3.36-1.44,6.27-3.43,8.66-5.93,2.4-2.5,4.29-5.42,5.62-8.68,1.33-3.25,2.01-6.73,2.01-10.36v-10.22c0-3.12-.99-6.39-2.94-9.71-2.02-3.43-4.56-6.86-7.56-10.19-3.03-3.35-6.35-6.68-9.88-9.88-3.49-3.16-6.85-6.24-9.98-9.14-3.08-2.86-5.7-5.51-7.79-7.87-2.28-2.59-3.39-4.81-3.39-6.81v-20.94h12.23c5.62,0,10.07,1.36,13.24,4.05,2.95,2.51,4.57,5.93,4.82,10.19h11.39Z"/><path d="M75.54,177.94c-2.71-2.6-5.9-4.7-9.47-6.26-3.6-1.56-7.47-2.36-11.52-2.36h-11.89c-4.15,0-8.11,.76-11.76,2.27-3.65,1.51-6.87,3.62-9.59,6.28-2.72,2.66-4.89,5.8-6.45,9.33-1.57,3.54-2.36,7.45-2.36,11.61v10.05c0,.54,.04,1.09,.1,1.63-.06,.81-.1,1.63-.1,2.47v10.05c0,3.24,1.11,6.58,3.29,9.94,2.1,3.23,4.74,6.53,7.84,9.8,3.08,3.25,6.49,6.52,10.13,9.71,3.57,3.13,6.94,6.19,10.02,9.1,3.01,2.85,5.57,5.6,7.59,8.17,1.89,2.4,2.85,4.5,2.85,6.23v5.11h-11.56c-4.19,0-7.45-1.2-9.98-3.69-2.52-2.47-3.75-5.59-3.75-9.55v-1.17H12.5v1.17c0,.2,.01,.4,.01,.6h-.01v2.42c0,2.93,.64,18.7,2.36,22.58,1.56,3.53,3.73,6.67,6.45,9.32,2.71,2.65,5.93,4.79,9.57,6.36,3.65,1.56,7.61,2.36,11.77,2.36h11.73c4.38,0,8.45-.79,12.1-2.36,3.65-1.57,6.82-3.74,9.43-6.46,2.6-2.71,4.65-5.88,6.1-9.41,1.45-3.53,2.18-7.32,2.18-11.25v-10.22c0-.56-.04-1.11-.09-1.68,.05-.75,.09-1.5,.09-2.26v-10.22c0-3.54-1.1-7.21-3.26-10.9-2.1-3.57-4.73-7.12-7.85-10.58-3.08-3.41-6.46-6.79-10.05-10.05-3.49-3.16-6.84-6.23-9.96-9.12-3.02-2.8-5.59-5.4-7.62-7.71-1.84-2.08-2.81-3.9-2.81-5.25v-4.44h9.88c5.05,0,8.99,1.17,11.72,3.49,2.71,2.3,4.02,5.43,4.02,9.57v1.17h16.08v-1.17c0-3.94-.79-7.74-2.36-11.28-.26-.58-.56-1.14-.85-1.69h3.21v-1.17c0-3.94-.79-7.74-2.36-11.28-1.56-3.53-3.73-6.64-6.46-9.25Zm6.45,33.51h-11.39c-.25-4.26-1.87-7.68-4.82-10.19-3.16-2.69-7.62-4.05-13.24-4.05h-9.88v-11.39h11.89c1.38,0,2.74,.1,4.07,.3,2.23,.58,4.13,1.49,5.64,2.78,2.71,2.3,4.02,5.43,4.02,9.57v1.17h10.21c.49,.85,.96,1.73,1.36,2.65,1.28,2.89,1.99,5.96,2.13,9.15Zm-11.39-14.15c-.25-4.26-1.87-7.68-4.82-10.19-3.16-2.69-7.62-4.05-13.24-4.05h-12.23v20.94c0,1.99,1.11,4.22,3.39,6.81,2.09,2.37,4.71,5.02,7.79,7.87,3.13,2.9,6.48,5.97,9.98,9.14,3.53,3.2,6.86,6.53,9.88,9.88,3,3.34,5.55,6.76,7.56,10.19,1.95,3.32,2.94,6.59,2.94,9.71v10.22c0,3.62-.68,7.11-2.01,10.36-1.34,3.26-3.23,6.18-5.62,8.68-2.39,2.5-5.3,4.49-8.66,5.93-3.69,1.58-7.64,2.36-11.18,2.17h-11.73c-3.84,0-7.49-.73-10.84-2.17-3.38-1.45-6.35-3.42-8.85-5.87-2.51-2.45-4.51-5.34-5.95-8.6-1.28-2.9-2-6.03-2.14-9.32h11.73c.24,4.03,1.72,7.41,4.42,10.05,2.95,2.89,6.86,4.36,11.63,4.36h13.91v-21.61c0-2.3-1.1-4.81-3.35-7.68-2.09-2.66-4.72-5.49-7.82-8.42-3.08-2.91-6.48-5.99-10.08-9.16-3.59-3.15-6.95-6.36-9.97-9.56-3.01-3.17-5.56-6.35-7.57-9.46-1.93-2.97-2.91-5.88-2.91-8.66v-10.05c0-3.83,.73-7.42,2.16-10.66,1.44-3.25,3.44-6.14,5.94-8.6,2.5-2.45,5.47-4.39,8.84-5.78,3.36-1.39,7.02-2.09,10.86-2.09h11.89c3.73,0,7.29,.73,10.58,2.16,3.32,1.45,6.27,3.4,8.79,5.8,2.5,2.4,4.5,5.26,5.94,8.51,1.28,2.89,1.99,5.96,2.13,9.15h-11.39Zm-16.22,111.81h-11.73c-3.84,0-7.49-.73-10.84-2.17-3.38-1.45-6.35-3.42-8.85-5.88-2.5-2.45-4.5-5.34-5.94-8.6-.78-1.77-1.38-7.25-1.74-12.38,1.53,3.19,3.54,6.06,6.04,8.51,2.71,2.66,5.93,4.79,9.57,6.35,2.35,1.01,4.83,1.69,7.4,2.05,1.4,.28,2.88,.39,4.45,.31h11.63c.39,.02,.77,.03,1.15,.03,.29,0,.57-.02,.86-.03h.27c3.96-.2,7.46-1.34,9.84-2.36,3.65-1.56,6.82-3.74,9.43-6.46,2.51-2.62,4.5-5.67,5.93-9.05v2.54c0,3.62-.68,7.11-2.01,10.36-1.34,3.26-3.23,6.18-5.62,8.68-2.39,2.5-5.3,4.49-8.66,5.93-3.36,1.44-7.12,2.17-11.18,2.17ZM14.85,217.21c.29,.53,.6,1.05,.94,1.58,2.09,3.23,4.73,6.53,7.84,9.8,3.07,3.24,6.48,6.51,10.13,9.71,3.59,3.14,6.96,6.21,10.02,9.1,3.01,2.85,5.57,5.6,7.59,8.16,1.89,2.4,2.85,4.5,2.85,6.23v7.84c-.31-.45-.63-.91-1-1.37-2.09-2.66-4.72-5.49-7.82-8.42-3.1-2.93-6.49-6.01-10.08-9.16-3.59-3.14-6.94-6.36-9.97-9.56-3-3.17-5.55-6.35-7.57-9.46-1.93-2.97-2.91-5.88-2.91-8.66v-5.79Z"/><polygon class="e" points="126.07 197.37 126.07 294.95 151.53 294.95 151.53 197.37 151.53 183.23 179.5 183.23 179.5 171.67 98.1 171.67 98.1 183.23 126.07 183.23 126.07 197.37"/><path d="M95.75,183.47v16.25h27.97v111.73h30.16v-111.73h27.97v-30.4H95.75v14.15Zm2.35-.25v-11.55h81.4v11.55h-27.97v111.73h-25.46v-111.73h-27.97Zm81.4,14.15h-25.62v-11.55h25.62v11.55Zm-53.43,111.73v-11.8h25.46v11.8h-25.46Zm-27.97-123.28h25.62v11.55h-25.62v-11.55Z"/><path class="e" d="M269.12,180.11c-2.46-2.51-5.39-4.57-8.7-6.12-3.29-1.54-6.84-2.32-10.56-2.32h-26.63c-3.72,0-7.27,.78-10.56,2.32-3.32,1.55-6.25,3.61-8.7,6.12-2.46,2.51-4.43,5.44-5.88,8.7-1.43,3.24-2.16,6.6-2.16,9.99v69.01c0,3.61,.75,7.08,2.24,10.31,1.5,3.26,3.53,6.19,6.05,8.71,2.51,2.51,5.43,4.51,8.69,5.95,3.24,1.43,6.71,2.16,10.33,2.16h26.63c3.61,0,7.09-.73,10.33-2.16,3.26-1.44,6.18-3.45,8.69-5.95,2.51-2.51,4.54-5.44,6.04-8.71,1.48-3.24,2.24-6.7,2.24-10.31v-69.01c0-3.39-.73-6.75-2.16-9.99-1.44-3.26-3.42-6.19-5.88-8.7Zm-19.53,31.84c0,3.87-1.41,6.58-2.68,6.58s-2.68-2.7-2.68-6.58,1.41-6.58,2.68-6.58,2.68,2.7,2.68,6.58Zm-20.55,0c0,3.87-1.41,6.58-2.68,6.58s-2.68-2.7-2.68-6.58,1.41-6.58,2.68-6.58,2.68,2.7,2.68,6.58Zm35.75,15.59c0,15.72-12.63,28.5-28.15,28.5s-28.15-12.79-28.15-28.5v-.51h1.73v.51c0,14.76,11.85,26.77,26.42,26.77s26.42-12.01,26.42-26.77v-.51h1.73v.51Z"/><path d="M270.79,178.47c-2.66-2.71-5.82-4.94-9.39-6.61-3.6-1.68-7.49-2.54-11.55-2.54h-26.63c-4.06,0-7.95,.85-11.55,2.54-3.57,1.67-6.73,3.89-9.39,6.61-2.65,2.71-4.79,5.87-6.35,9.39-1.57,3.54-2.36,7.22-2.36,10.94v83.16c0,3.95,.82,7.75,2.45,11.29,1.61,3.52,3.81,6.68,6.52,9.39,2.71,2.71,5.87,4.88,9.4,6.44,3.54,1.57,7.34,2.36,11.28,2.36h26.63c3.94,0,7.74-.8,11.28-2.36,3.53-1.56,6.69-3.73,9.4-6.44s4.9-5.86,6.52-9.39c1.63-3.55,2.45-7.35,2.45-11.29v-83.16c0-3.72-.8-7.4-2.36-10.95-1.56-3.52-3.69-6.67-6.35-9.39Zm-47.57,130.63c-3.61,0-7.09-.73-10.33-2.16-3.26-1.44-6.19-3.45-8.69-5.96-2.51-2.51-4.55-5.44-6.05-8.7-1.48-3.23-2.24-6.7-2.24-10.31v-3.09c.04,.08,.07,.16,.1,.24,1.61,3.52,3.81,6.68,6.52,9.39,2.71,2.71,5.88,4.88,9.4,6.44,3.54,1.57,7.34,2.36,11.28,2.36h26.63c3.94,0,7.74-.8,11.28-2.36,3.52-1.56,6.69-3.73,9.4-6.44,2.71-2.71,4.9-5.87,6.52-9.39,.04-.08,.07-.16,.1-.24v3.09c0,3.61-.75,7.08-2.24,10.31-1.5,3.27-3.53,6.2-6.05,8.71-2.51,2.51-5.43,4.51-8.69,5.95-3.24,1.43-6.72,2.16-10.33,2.16h-26.63Zm53.93-96.15v54.86c0,3.61-.75,7.08-2.24,10.31-1.5,3.27-3.53,6.19-6.04,8.71-2.51,2.51-5.43,4.51-8.69,5.95-3.24,1.43-6.72,2.16-10.33,2.16h-26.63c-3.62,0-7.09-.73-10.33-2.16-3.26-1.44-6.18-3.45-8.69-5.95-2.51-2.51-4.55-5.44-6.05-8.71-1.48-3.23-2.24-6.7-2.24-10.31v-69.01c0-3.39,.73-6.75,2.16-9.99,1.44-3.26,3.42-6.19,5.88-8.7,2.46-2.51,5.39-4.57,8.7-6.12,3.29-1.54,6.84-2.32,10.56-2.32h26.63c3.72,0,7.27,.78,10.56,2.32,3.31,1.55,6.24,3.61,8.7,6.12,2.46,2.51,4.44,5.44,5.88,8.7,1.43,3.24,2.16,6.6,2.16,9.99v14.15Z"/><path class="e" d="M381.77,238.92c-1.73-1.73-4.13-3.32-7.12-4.71l-2.6-1.21,2.7-.96c2.97-1.06,5.35-2.36,7.07-3.88,1.72-1.51,3.35-3.71,4.85-6.53,1.47-2.77,2.21-6.51,2.21-11.09v-12.06c0-3.97-.62-7.66-1.85-10.98-1.22-3.29-3.02-6.13-5.34-8.46-2.33-2.33-5.16-4.16-8.39-5.43-3.25-1.28-6.97-1.93-11.04-1.93h-54.6v123.28h25.46v-55.78h30.32v55.78h25.46v-37.69c0-4.59-.75-8.38-2.22-11.28-1.51-2.95-3.15-5.33-4.89-7.07Zm-18.35-11.63h-30.32v-44.23h30.32v44.23Z"/><path d="M383.35,177.37c-2.56-2.56-5.66-4.57-9.19-5.96-3.53-1.39-7.53-2.09-11.9-2.09h-56.95v142.13h30.16v-55.78h25.62v55.78h30.16v-54.19c0-4.96-.83-9.12-2.47-12.34-.77-1.52-1.59-2.89-2.44-4.13,.85-1.16,1.66-2.46,2.43-3.92,1.65-3.12,2.48-7.22,2.48-12.19v-12.06c0-.25-.03-.48-.03-.73,.01-.45,.03-.9,.03-1.36v-12.06c0-4.24-.67-8.21-2-11.8-1.34-3.6-3.32-6.73-5.88-9.3Zm-19.92,131.73v-11.8h25.46v11.8h-25.46Zm-55.78,0v-11.8h25.46v11.8h-25.46Zm27.81-67.58h25.62v11.8h-25.62v-11.8Zm53.43,29.89v23.54h-25.46v-55.78h-30.32v55.78h-25.46v-123.28h54.6c4.07,0,7.79,.65,11.04,1.93,3.23,1.27,6.06,3.1,8.39,5.43,2.32,2.32,4.12,5.17,5.34,8.46,1.23,3.32,1.85,7.02,1.85,10.98v12.06c0,4.59-.74,8.32-2.21,11.09-1.49,2.83-3.12,5.02-4.85,6.53-1.72,1.51-4.1,2.82-7.07,3.88l-2.7,.96,2.6,1.21c2.99,1.39,5.39,2.98,7.12,4.71,1.74,1.74,3.39,4.12,4.89,7.07,1.47,2.89,2.22,6.69,2.22,11.28v14.15Zm-5.45-34.16c-1.44-1.44-3.26-2.77-5.44-3.99,2.15-.97,3.96-2.09,5.39-3.35,1.94-1.7,3.74-4.12,5.37-7.2,.05-.09,.09-.19,.13-.28v2.23c0,4.59-.74,8.32-2.21,11.09-.59,1.12-1.21,2.11-1.84,3.03-.46-.55-.92-1.07-1.4-1.54Z"/><path d="M363.42,183.06h-30.32v44.23h30.32v-44.23Zm-2.35,41.88h-25.62v-25.38h25.62v25.38Zm-25.62-27.73v-11.39h25.62v11.39h-25.62Z"/><path class="e" d="M491.67,179.97c-2.63-2.52-5.64-4.55-8.97-6.06-3.29-1.49-6.57-2.24-9.73-2.24h-25.8c-3.05,0-6.24,.75-9.48,2.24-3.28,1.51-6.27,3.52-8.9,5.98-2.62,2.46-4.79,5.39-6.45,8.72-1.64,3.28-2.47,6.71-2.47,10.19v96.14h25.46v-55.78h29.82v55.78h25.62v-96.14c0-3.47-.86-6.87-2.55-10.09-1.72-3.27-3.92-6.22-6.56-8.74Zm-16.52,47.31h-29.82v-44.23h29.82v44.23Z"/><path d="M493.3,178.27c-2.82-2.7-6.06-4.89-9.63-6.5-3.6-1.63-7.2-2.45-10.7-2.45h-25.8c-3.39,0-6.91,.82-10.46,2.45-3.51,1.61-6.71,3.77-9.53,6.41-2.83,2.65-5.16,5.81-6.95,9.38-1.81,3.61-2.72,7.39-2.72,11.25v112.64h30.16v-55.78h25.12v55.78h30.32v-112.64c0-3.85-.95-7.62-2.81-11.18-1.84-3.5-4.2-6.64-7.01-9.35Zm-18.15,130.83v-11.8h25.62v11.8h-25.62Zm-55.28,0v-11.8h25.46v11.8h-25.46Zm27.81-67.58h25.12v11.8h-25.12v-11.8Zm53.09-28.57v82h-25.62v-55.78h-29.82v55.78h-25.46v-96.14c0-3.49,.83-6.92,2.47-10.19,1.66-3.32,3.83-6.25,6.45-8.72,2.63-2.47,5.62-4.48,8.9-5.98,3.24-1.49,6.42-2.24,9.48-2.24h25.8c3.16,0,6.44,.75,9.73,2.24,3.32,1.5,6.34,3.54,8.97,6.06,2.63,2.53,4.84,5.47,6.56,8.74,1.69,3.23,2.55,6.62,2.55,10.09v14.15Z"/><path d="M475.15,183.06h-29.82v44.23h29.82v-44.23Zm-2.35,41.88h-25.12v-25.38h25.12v25.38Zm-25.12-27.73v-11.39h25.12v11.39h-25.12Z"/><path class="e" d="M612.3,197.63c-.15-2.98-.89-5.94-2.21-8.8-1.5-3.26-3.56-6.19-6.12-8.7-2.57-2.52-5.56-4.58-8.89-6.14-3.29-1.54-6.73-2.32-10.22-2.32h-26.63c-3.72,0-7.27,.78-10.56,2.32-3.32,1.55-6.24,3.64-8.69,6.2-2.46,2.57-4.41,5.52-5.8,8.78-1.38,3.24-2.08,6.61-2.08,10.01v68.68c0,3.74,.7,7.3,2.09,10.6,1.38,3.3,3.33,6.22,5.78,8.67,2.45,2.45,5.34,4.43,8.61,5.87,3.24,1.43,6.83,2.16,10.66,2.16h26.8c4.06,0,7.78-.75,11.07-2.24,3.31-1.5,6.21-3.5,8.61-5.95,2.39-2.44,4.28-5.36,5.61-8.66,1.33-3.31,2.01-6.82,2.01-10.45v-40.53h-39.53v11.89h14.07v44.23h-30.32v-100h32c3.82,0,6.89,1.42,9.13,4.21,1.99,2.49,3.08,5.92,3.25,10.2h11.38Z"/><path d="M605.62,178.45c-2.76-2.7-5.97-4.92-9.54-6.59-3.6-1.68-7.38-2.54-11.22-2.54h-26.63c-4.06,0-7.95,.85-11.55,2.54-3.58,1.68-6.74,3.93-9.4,6.7-2.66,2.77-4.76,5.96-6.26,9.48-1.51,3.53-2.27,7.21-2.27,10.93v82.83c0,4.05,.76,7.92,2.27,11.51,1.5,3.59,3.62,6.76,6.28,9.42,2.65,2.66,5.79,4.8,9.32,6.36,3.54,1.57,7.45,2.36,11.61,2.36h26.8c4.39,0,8.45-.82,12.04-2.45,3.58-1.62,6.72-3.79,9.32-6.45,2.61-2.66,4.66-5.84,6.11-9.43,1.45-3.59,2.18-7.4,2.18-11.33v-57.03h-44.23v30.74h14.07v25.38h-25.62v-81.16h29.65c3.11,0,5.5,1.09,7.29,3.33,1.83,2.29,2.76,5.62,2.76,9.9v1.17h16.09v-1.17c0-3.72-.82-7.41-2.45-10.96-.32-.69-.68-1.35-1.04-2.01h3.49v-1.17c0-3.72-.82-7.41-2.45-10.96-1.62-3.52-3.85-6.69-6.61-9.39Zm6.68,33.33h-11.38c-.17-4.28-1.26-7.7-3.25-10.2-2.23-2.79-5.31-4.21-9.13-4.21h-29.65v-11.55h25.96c3.49,0,6.93,.78,10.22,2.32,.05,.02,.09,.05,.14,.07,.21,.22,.42,.45,.62,.69,1.83,2.29,2.76,5.62,2.76,9.9v1.17h9.88c.59,.97,1.14,1.96,1.62,2.99,1.31,2.86,2.05,5.82,2.21,8.8Zm-11.38-14.15c-.17-4.28-1.26-7.7-3.25-10.2-2.23-2.79-5.3-4.21-9.13-4.21h-32v100h30.32v-44.23h-14.07v-11.89h39.53v40.53c0,3.63-.68,7.14-2.01,10.45-1.33,3.31-3.22,6.22-5.61,8.66-2.4,2.45-5.29,4.45-8.61,5.95-3.29,1.49-7.02,2.24-11.07,2.24h-26.8c-3.84,0-7.42-.73-10.66-2.16-3.26-1.44-6.16-3.42-8.61-5.87-2.45-2.45-4.39-5.36-5.78-8.67-1.38-3.3-2.09-6.86-2.09-10.6v-68.68c0-3.4,.7-6.77,2.08-10.01,1.39-3.26,3.34-6.21,5.8-8.78,2.45-2.56,5.38-4.65,8.69-6.2,3.29-1.54,6.84-2.32,10.56-2.32h26.63c3.49,0,6.93,.78,10.22,2.32,3.33,1.56,6.32,3.62,8.89,6.14,2.56,2.51,4.62,5.43,6.12,8.7,1.31,2.86,2.05,5.82,2.21,8.8h-11.38Zm-28.12,43.72h11.72v11.8h-11.72v-11.8Zm-25.24,65.59c-3.26-1.45-6.16-3.42-8.61-5.87-2.45-2.45-4.39-5.36-5.78-8.67-1.38-3.3-2.09-6.86-2.09-10.6v-2.47c1.5,3.52,3.58,6.63,6.2,9.25,2.65,2.66,5.79,4.8,9.32,6.36,3.06,1.35,6.4,2.13,9.94,2.32v.12h30.32v-.13c3.69-.2,7.11-1,10.2-2.4,3.58-1.62,6.72-3.79,9.32-6.45,2.51-2.57,4.5-5.62,5.94-9.06v2.45c0,3.63-.68,7.14-2.01,10.45-1.33,3.31-3.22,6.22-5.61,8.66-2.4,2.45-5.29,4.45-8.61,5.95-3.29,1.49-7.02,2.24-11.07,2.24h-26.8c-3.83,0-7.42-.73-10.66-2.16Z"/><polygon class="e" points="642.82 185.82 642.82 294.95 710.15 294.95 710.15 283.23 668.27 283.23 668.27 253.32 668.27 241.43 668.27 239.17 696.25 239.17 696.25 227.28 668.27 227.28 668.27 197.37 668.27 183.23 710.15 183.23 710.15 171.67 642.82 171.67 642.82 185.82"/><path d="M640.47,169.32v142.13h72.03v-30.57h-41.88v-25.21h27.97v-30.74h-27.97v-25.21h41.88v-30.4h-72.03Zm69.68,28.05h-39.53v-11.55h39.53v11.55Zm0-14.15h-41.88v44.06h27.97v11.89h-27.97v44.06h41.88v11.72h-67.33v-123.28h67.33v11.55Zm-39.53,58.3h25.62v11.8h-25.62v-11.8Zm39.53,55.86v11.72h-67.33v-11.8h25.46v.08h41.88Z"/><path d="M223.67,211.95c0,3.87,1.41,6.58,2.68,6.58s2.68-2.7,2.68-6.58-1.41-6.58-2.68-6.58-2.68,2.7-2.68,6.58Z"/><path d="M244.23,211.95c0,3.87,1.41,6.58,2.68,6.58s2.68-2.7,2.68-6.58-1.41-6.58-2.68-6.58-2.68,2.7-2.68,6.58Z"/><path d="M263.05,227.54c0,14.76-11.85,26.77-26.42,26.77s-26.42-12.01-26.42-26.77v-.51h-1.73v.51c0,15.72,12.63,28.5,28.15,28.5s28.15-12.79,28.15-28.5v-.51h-1.73v.51Z"/></g></g></svg>